<?xml version="1.0" encoding="UTF-8"?>
<svg id="Camada_2" data-name="Camada 2" xmlns="http://www.w3.org/2000/svg" viewBox="0 0 86.38 55.02">
  <defs>
    <style>
      .cls-1 {
        fill: #fff;
      }

      .cls-2 {
        letter-spacing: -.04em;
      }

      .cls-3 {
        font-size: 21.81px;
        letter-spacing: -.04em;
      }

      .cls-3, .cls-4, .cls-5 {
        fill: #1c2f40;
        font-family: Belda-NorBla, Belda;
      }

      .cls-6 {
        letter-spacing: 0em;
      }

      .cls-7 {
        letter-spacing: -.03em;
      }

      .cls-8 {
        fill: #284259;
      }

      .cls-9 {
        letter-spacing: 0em;
      }

      .cls-10 {
        fill: #0d1a26;
      }

      .cls-4 {
        font-size: 21.81px;
        letter-spacing: -.03em;
      }

      .cls-11 {
        fill: #a48111;
      }

      .cls-12 {
        letter-spacing: -.02em;
      }

      .cls-5 {
        font-size: 5.87px;
      }

      .cls-13 {
        letter-spacing: -.05em;
      }
    </style>
  </defs>
  <g id="Camada_1-2" data-name="Camada 1">
    <g>
      <g>
        <path class="cls-10" d="M25.01,41.34c0,.29-.63,.23-1.41,.23s-1.41,.06-1.41-.23,.63-.83,1.41-.83,1.41,.54,1.41,.83Z"/>
        <g>
          <g>
            <path class="cls-11" d="M40.66,7.22c-.1,0-.24,.1-.23,.33s.13,.51,.13,.51h.05s-.07-.33-.07-.46,.07-.23,.12-.23,.12,.09,.12,.23-.07,.44-.07,.44h.05s.12-.27,.13-.49-.13-.33-.23-.33Z"/>
            <path class="cls-11" d="M39.1,12.74l-1.03-3.02c-.03-.08-.1-.13-.19-.13s-.15,.05-.19,.13l-1.03,3.02-.04-.02,1.03-3.02c.04-.1,.13-.16,.23-.16s.19,.06,.23,.16l1.03,3.02-.04,.02Z"/>
            <path class="cls-11" d="M38.53,12.74l-.55-3.02c-.02-.08-.06-.13-.1-.13s-.08,.05-.1,.13l-.55,3.02-.02-.02,.55-3.02c.02-.1,.07-.16,.12-.16s.1,.06,.12,.16l.55,3.02-.02,.02Z"/>
            <path class="cls-11" d="M42.78,12.74l.55-3.02c.02-.08,.06-.13,.1-.13s.08,.05,.1,.13l.55,3.02,.02-.02-.55-3.02c-.02-.1-.07-.16-.12-.16s-.1,.06-.12,.16l-.55,3.02,.02,.02Z"/>
            <rect class="cls-11" x="36.59" y="12.68" width="2.59" height=".3"/>
            <path class="cls-11" d="M39.1,12.98h-2.42c0,.46,.54,.83,1.21,.83s1.21-.37,1.21-.83Z"/>
            <path class="cls-11" d="M42.21,12.74l1.03-3.02c.03-.08,.1-.13,.19-.13s.15,.05,.19,.13l1.03,3.02,.04-.02-1.03-3.02c-.04-.1-.13-.16-.23-.16s-.19,.06-.23,.16l-1.03,3.02,.04,.02Z"/>
            <rect class="cls-11" x="42.13" y="12.68" width="2.59" height=".3" transform="translate(86.85 25.66) rotate(180)"/>
            <path class="cls-11" d="M42.21,12.98h2.42c0,.46-.54,.83-1.21,.83s-1.21-.37-1.21-.83Z"/>
            <path class="cls-11" d="M43.81,8.88c-.12-.12-.31-.11-.38,0-.03,.05-.02,.09,0,.13,0,0,0,0,0,0,0,0,.01,0,.02,.01,.02,.02,.04,.04,.06,.05,0,0,.01,0,.02,0,.03,0,.06,.01,.08,0-.01-.03,0-.06,0-.07,0,0,0,0,0,0,.01-.01,.03-.01,.05,0,0,0,0,0,0,0,.02,0,.04,.02,.05,.05,0,0,0,0,0,0,0,.02,0,.06,0,.09,0,.01,0,.02-.01,.03-.14,.23-.82,0-1.13-.32-.22-.24-.29-.5-.29-.5,0,0-.66-.33-1.62-.33s-1.62,.33-1.62,.33c0,0-.07,.26-.29,.5-.31,.33-.99,.56-1.13,.32,0-.01,0-.02-.01-.03-.01-.04-.02-.07,0-.09,0,0,0,0,0,0,.01-.02,.03-.04,.05-.05,0,0,0,0,0,0,.02,0,.04,0,.05,0,0,0,0,0,0,0,.01,.01,.02,.04,0,.07,.01,.01,.04,.01,.08,0,0,0,.01,0,.02,0,.03-.01,.05-.03,.06-.05,0,0,.01,0,.02-.01,0,0,0,0,0,0,.02-.03,.03-.07,0-.13-.06-.11-.25-.12-.38,0-.08,.07-.12,.17-.1,.29,0,0,0,0,0,0,0,.03,.01,.06,.03,.09,.07,.18,.34,.31,.79,.2,.49-.12,1.44-.7,1.91-.75,.14-.02,.24,.03,.31,.07,.06,.05,.09,.1,.09,.1h.27s.03-.05,.09-.1c.06-.05,.16-.09,.31-.07,.47,.05,1.42,.63,1.91,.75,.44,.11,.71-.02,.79-.2,.01-.03,.02-.06,.03-.09,0,0,0,0,0,0,.02-.12-.02-.22-.1-.29Z"/>
            <path class="cls-11" d="M41.05,9.22c0,.22-.18,.4-.4,.4s-.4-.18-.4-.4,.18-.4,.4-.4,.4,.18,.4,.4Zm-.4-.24c-.13,0-.24,.11-.24,.24s.11,.24,.24,.24,.24-.11,.24-.24-.11-.24-.24-.24Z"/>
            <path class="cls-11" d="M40.73,9.92v-.42h-.14v.42c0,.11-.13,.24-.13,.24l.2,.25,.2-.25s-.13-.13-.13-.24Z"/>
            <rect class="cls-11" x="40.52" y="1.48" width=".27" height="5.84"/>
          </g>
          <g>
            <path class="cls-11" d="M17.59,24.9l-.49,.09c2.97,16.54,3.48,16.57,3.48,16.57,0,0,.47-.2-2.5-16.75l-.49,.09Z"/>
            <path class="cls-1" d="M17.59,24.9l-.11,.02c1.69,9.38,1.81,9.43,1.81,9.43,0,0,.1-.08-1.59-9.47l-.11,.02Z"/>
            <rect class="cls-11" x="15.57" y="24.69" width="4.02" height=".22" transform="translate(-4.11 3.5) rotate(-10.19)"/>
            <polygon class="cls-11" points="17.38 21.67 17.02 21.74 16.66 21.8 17.06 24.78 17.55 24.69 18.04 24.6 17.38 21.67"/>
            <path class="cls-11" d="M19.81,24.4c.03,.14-.07,.28-.21,.3-.14,.03-.28-.07-.3-.21-.03-.14,.07-.28,.21-.3s.28,.07,.3,.21Z"/>
            <path class="cls-11" d="M15.34,25.2c.03,.14,.16,.24,.3,.21,.14-.03,.24-.16,.21-.3-.03-.14-.16-.24-.3-.21s-.24,.16-.21,.3Z"/>
          </g>
          <path class="cls-10" d="M29.14,1.96c-.04-.95-1.07-1.48-2.33-1.48s-2.29,.54-2.33,1.48c-.1,2.35,.68,4.52,2.33,4.52s2.44-2.17,2.33-4.52Z"/>
          <path class="cls-10" d="M41.75,1.82c-.4-.07-2.24,.21-2.65,.32-.41,.11-1.09,.99-1.09,.99-1.36,1.56-2.81,3.02-3.16,3.22-.33,.18-5.87,1.65-6.36,1.31-.5-.34-.77-.96-.9-1.43l-.78-.04-.78,.04c-.12,.46-.4,1.08-.9,1.43-.49,.34-1.35,.44-2.44,1.18-1.53,1.04-4.48,5.18-4.7,5.99-.41,1.54-.41,4.59-.34,6.68-.03,.02-1.5,.97-1.61,1.39-.11,.42,.53,1.73,.85,1.5,.33-.24,1.44-1.73,1.65-2.1,.09-.16,.15-.41,.18-.62,.2-1.6,.6-5.28,.8-5.81,.38-.96,3.23-3.87,3.23-3.87l4.05,2.16,4.05-3.56s3.96-1.8,4.85-2.34c.84-.51,2.59-3.31,3.36-4.56,0,0,1.85,0,2.23-.22s.85-1.6,.46-1.67Z"/>
          <path class="cls-10" d="M29.39,1.9c0-1.41-1.38-1.9-2.59-1.9s-2.59,.48-2.59,1.9c-.38,.1-.23,1.12,.35,.97,.63-.17,2.24-.88,2.24-2.17,0,1.29,1.61,2.01,2.24,2.17,.58,.16,.73-.87,.35-.97Z"/>
          <path class="cls-10" d="M31.62,34.41c.28-4.01,.54-7.75,.1-9.94-.49-2.39-1.61-2.74-1.8-5.45-.17-2.52,1.24-6.38,1.1-8.51-.81-.49-1.6-1.19-1.62-2.86l-.65,.07c.16,1.99,.14,4.53-1.87,4.53s-2.09-2.5-1.94-4.46l-.64,.26c-.01,1.85-.33,2.76-1.54,3.96-.14,2.13,1.12,4.5,.94,7.02-.18,2.71-1.31,3.06-1.8,5.45-.45,2.23-.18,6.1,.11,10.13,.18,2.55-1.16,6.96-1.16,6.96,1.1,0,1.4-1.27,2.74-1.34,1.64-.08,1.08,1.34,3.22,1.34,3.55,0,5.42-.25,5.42-.25,0,0-.79-4.26-.61-6.9Z"/>
          <path class="cls-8" d="M29.12,3.03c-.79-.11-1.55-.16-2.32-.16-.76,0-1.53,.05-2.32,.16-.05,.16,.01,.86,.15,1.03,.75-.11,1.46-.15,2.17-.15,.71,0,1.42,.05,2.17,.15,.13-.17,.2-.87,.15-1.03Z"/>
        </g>
      </g>
      <g>
        <path class="cls-10" d="M50.79,29.55c.23-.07,1.43,.43,2.68,1.35,.15,.34,.28,.72,.4,1.19-.04-.42-.08-.73-.14-.99,.17,.14,.35,.28,.52,.44,.09,.36,.13,.76,.12,1.25,.11-.4,.17-.69,.2-.95,.31,.3,.6,.63,.85,.98,.04,.35,.04,.73,0,1.16,.11-.33,.18-.6,.24-.83,.6,.93,.96,2,.82,3.17,0,0-1.15-.04-2.01-.9-.29-.28-.55-.58-.79-.88,.53,.15,1.09,.37,1.71,.66-.93-.63-1.49-.95-2.12-1.19-.29-.39-.54-.76-.78-1.1,.32,.06,.66,.12,1.03,.21-.45-.15-.81-.26-1.12-.35-.17-.24-.32-.46-.47-.64-.74-.92-1.94-2.33-1.12-2.59Z"/>
        <path class="cls-11" d="M57.77,41.22s-.3-2.82-1.42-5.14c-1.43-2.99-4.49-5.52-4.64-5.56s2.89,2.34,4.4,5.46c1.31,2.73,1.41,4.84,1.41,4.84l.25,.4Z"/>
      </g>
      <text class="cls-4" transform="translate(58.85 41.71)"><tspan x="0" y="0">L</tspan></text>
      <rect class="cls-10" y="45.23" width="86.38" height="1.32"/>
      <text class="cls-5" transform="translate(1.6 53.04)"><tspan x="0" y="0">And</tspan><tspan class="cls-9" x="11.38" y="0">r</tspan><tspan x="14.08" y="0">ade </tspan><tspan class="cls-13" x="25.3" y="0">&amp;</tspan><tspan x="29.42" y="0" xml:space="preserve"> Lace</tspan><tspan class="cls-6" x="43.27" y="0">r</tspan><tspan x="45.97" y="0">da</tspan><tspan class="cls-2" x="52.85" y="0"> </tspan><tspan class="cls-12" x="54" y="0">A</tspan><tspan x="57.82" y="0">d</tspan><tspan class="cls-7" x="61.48" y="0">v</tspan><tspan x="64.28" y="0">ogados</tspan></text>
      <text class="cls-3" transform="translate(37.55 41.65)"><tspan x="0" y="0">A</tspan></text>
    </g>
  </g>
</svg>