<?xml version="1.0" encoding="UTF-8"?>
<svg id="Camada_2" data-name="Camada 2" xmlns="http://www.w3.org/2000/svg" viewBox="0 0 86.59 69.94">
  <defs>
    <style>
      .cls-1 {
        font-size: 5.87px;
      }

      .cls-1, .cls-2, .cls-3 {
        font-family: Belda-NorBla, Belda;
      }

      .cls-1, .cls-2, .cls-3, .cls-4 {
        fill: #a48111;
      }

      .cls-5 {
        fill: #fff;
      }

      .cls-6 {
        letter-spacing: -.04em;
      }

      .cls-7 {
        letter-spacing: 0em;
      }

      .cls-2 {
        font-size: 38.18px;
        letter-spacing: -.03em;
      }

      .cls-8 {
        letter-spacing: -.03em;
      }

      .cls-9 {
        letter-spacing: 0em;
      }

      .cls-3 {
        font-size: 38.18px;
        letter-spacing: -.04em;
      }

      .cls-10 {
        letter-spacing: -.02em;
      }

      .cls-11 {
        letter-spacing: -.05em;
      }
    </style>
  </defs>
  <g id="Camada_1-2" data-name="Camada 1">
    <g>
      <path class="cls-4" d="M13.15,56.17c0,.4-.86,.31-1.92,.31s-1.92,.09-1.92-.31,.86-1.13,1.92-1.13,1.92,.74,1.92,1.13Z"/>
      <g>
        <g>
          <path class="cls-4" d="M34.4,9.8c-.13,0-.33,.14-.31,.45s.18,.69,.18,.69l.07-.02s-.09-.42-.09-.6,.09-.31,.16-.31,.16,.13,.16,.31-.09,.6-.09,.6l.07,.02s.16-.38,.18-.69-.18-.45-.31-.45Z"/>
          <path class="cls-4" d="M32.29,17.32l-1.4-4.11c-.04-.11-.14-.18-.25-.18s-.21,.07-.25,.18l-1.4,4.11-.06-.03,1.4-4.11c.05-.13,.17-.22,.31-.22s.26,.08,.31,.22l1.4,4.11-.06,.03Z"/>
          <path class="cls-4" d="M31.52,17.32l-.74-4.11c-.02-.11-.08-.18-.13-.18s-.11,.07-.13,.18l-.74,4.11-.03-.03,.74-4.11c.03-.13,.09-.22,.16-.22s.14,.08,.16,.22l.74,4.11-.03,.03Z"/>
          <path class="cls-4" d="M37.29,17.32l.74-4.11c.02-.11,.08-.18,.13-.18s.11,.07,.13,.18l.74,4.11,.03-.03-.74-4.11c-.03-.13-.09-.22-.16-.22s-.14,.08-.16,.22l-.74,4.11,.03,.03Z"/>
          <rect class="cls-4" x="28.88" y="17.23" width="3.52" height=".41"/>
          <path class="cls-4" d="M32.29,17.64h-3.29c0,.62,.74,1.12,1.65,1.12s1.65-.5,1.65-1.12Z"/>
          <path class="cls-4" d="M36.52,17.32l1.4-4.11c.04-.11,.14-.18,.25-.18s.21,.07,.25,.18l1.4,4.11,.06-.03-1.4-4.11c-.05-.13-.17-.22-.31-.22s-.26,.08-.31,.22l-1.4,4.11,.06,.03Z"/>
          <rect class="cls-4" x="36.41" y="17.23" width="3.52" height=".41" transform="translate(76.33 34.86) rotate(180)"/>
          <path class="cls-4" d="M36.52,17.64h3.29c0,.62-.74,1.12-1.65,1.12s-1.65-.5-1.65-1.12Z"/>
          <path class="cls-4" d="M38.69,12.06c-.17-.16-.42-.14-.51,.01-.04,.07-.03,.13,0,.17,0,0,0,0,0,0,0,0,.02,.01,.03,.02,.02,.03,.05,.05,.09,.07,.01,0,.02,0,.03,.01,.05,.01,.09,.01,.11,0-.02-.05-.01-.08,0-.1,0,0,0,0,0,0,.02-.02,.04-.02,.07,0,0,0,0,0,0,0,.03,.01,.05,.03,.07,.06,0,0,0,0,0,0,.01,.03,.01,.08-.01,.13,0,.01,0,.03-.02,.04-.19,.32-1.12,.01-1.54-.44-.31-.33-.4-.68-.4-.68,0,0-.89-.45-2.2-.45s-2.2,.45-2.2,.45c0,0-.09,.35-.4,.68-.42,.45-1.34,.76-1.54,.44,0-.02-.01-.03-.02-.04-.02-.05-.02-.09-.01-.13,0,0,0,0,0,0,.01-.03,.04-.05,.06-.06,0,0,0,0,0,0,.03,0,.05,0,.07,0,0,0,0,0,0,0,.02,.02,.02,.05,0,.1,.02,.02,.06,.02,.11,0,.01,0,.02,0,.03-.01,.04-.01,.06-.04,.09-.07,0,0,.02,0,.03-.02,0,0,0,0,0,0,.02-.05,.03-.1,0-.17-.09-.16-.35-.17-.51-.01-.1,.1-.16,.24-.13,.4,0,0,0,0,0,0,0,.04,.02,.08,.04,.12,.1,.24,.47,.42,1.07,.27,.66-.16,1.96-.95,2.59-1.02,.2-.02,.33,.04,.42,.1,.09,.06,.12,.14,.12,.14h.37s.04-.07,.12-.14c.09-.06,.22-.12,.42-.1,.63,.07,1.93,.86,2.59,1.02,.6,.15,.97-.03,1.07-.27,.02-.04,.03-.08,.04-.12,0,0,0,0,0,0,.03-.16-.03-.3-.13-.4Z"/>
          <path class="cls-4" d="M34.94,12.53c0,.3-.24,.54-.54,.54s-.54-.24-.54-.54,.24-.54,.54-.54,.54,.24,.54,.54Zm-.54-.33c-.18,0-.33,.15-.33,.33s.15,.33,.33,.33,.33-.15,.33-.33-.15-.33-.33-.33Z"/>
          <path class="cls-4" d="M34.5,13.48v-.56h-.2v.56c0,.15-.18,.32-.18,.32l.27,.34,.27-.34s-.18-.17-.18-.32Z"/>
          <rect class="cls-4" x="34.22" y="2.01" width=".36" height="7.93"/>
        </g>
        <g>
          <path class="cls-4" d="M3.07,33.84l-.67,.12c4.04,22.48,4.73,22.51,4.73,22.51,0,0,.64-.27-3.4-22.75l-.67,.12Z"/>
          <path class="cls-5" d="M3.07,33.84l-.15,.03c2.29,12.75,2.46,12.81,2.46,12.81,0,0,.14-.11-2.16-12.86l-.15,.03Z"/>
          <rect class="cls-4" x=".31" y="33.55" width="5.46" height=".29" transform="translate(-5.91 1.07) rotate(-10.19)"/>
          <polygon class="cls-4" points="2.79 29.45 2.29 29.54 1.8 29.63 2.35 33.67 3.02 33.55 3.68 33.43 2.79 29.45"/>
          <path class="cls-4" d="M6.08,33.15c.03,.19-.09,.38-.29,.41-.19,.03-.38-.09-.41-.29-.03-.19,.09-.38,.29-.41s.38,.09,.41,.29Z"/>
          <path class="cls-4" d="M0,34.24c.03,.19,.22,.32,.41,.29,.19-.03,.32-.22,.29-.41-.03-.19-.22-.32-.41-.29s-.32,.22-.29,.41Z"/>
        </g>
        <path class="cls-4" d="M18.76,2.67c-.06-1.29-1.45-2.01-3.17-2.01s-3.12,.73-3.17,2.01c-.14,3.19,.92,6.14,3.17,6.14s3.31-2.95,3.17-6.14Z"/>
        <path class="cls-4" d="M35.89,2.47c-.55-.09-3.05,.29-3.6,.43-.56,.15-1.48,1.35-1.48,1.35-1.85,2.13-3.82,4.11-4.3,4.38-.44,.25-7.98,2.24-8.64,1.78-.68-.47-1.05-1.31-1.22-1.94l-1.06-.06-1.06,.06c-.17,.63-.54,1.47-1.22,1.94-.66,.46-1.84,.59-3.31,1.6-2.08,1.41-6.09,7.03-6.38,8.14-.56,2.09-.56,6.23-.46,9.08-.04,.02-2.04,1.32-2.19,1.89-.15,.57,.72,2.35,1.16,2.04,.45-.32,1.95-2.35,2.24-2.85,.13-.22,.21-.56,.24-.84,.27-2.17,.81-7.18,1.09-7.9,.51-1.31,4.38-5.26,4.38-5.26l5.51,2.94,5.5-4.84s5.38-2.45,6.58-3.17c1.14-.69,3.51-4.49,4.56-6.2,0,0,2.51,0,3.03-.29s1.16-2.17,.62-2.26Z"/>
        <path class="cls-4" d="M19.1,2.58c0-1.92-1.87-2.58-3.52-2.58s-3.52,.66-3.52,2.58c-.52,.14-.31,1.53,.48,1.32,.85-.23,3.04-1.2,3.04-2.95,0,1.75,2.18,2.73,3.04,2.95,.79,.21,1-1.18,.48-1.32Z"/>
        <path class="cls-4" d="M22.13,46.75c.38-5.45,.74-10.52,.13-13.5-.66-3.25-2.19-3.72-2.44-7.4-.23-3.42,1.68-8.67,1.49-11.56-1.11-.67-2.18-1.62-2.2-3.89l-.89,.09c.21,2.71,.18,6.15-2.54,6.15s-2.84-3.4-2.63-6.06l-.87,.36c-.02,2.52-.45,3.74-2.09,5.38-.19,2.89,1.52,6.12,1.28,9.54-.25,3.68-1.78,4.16-2.44,7.4-.62,3.02-.24,8.28,.15,13.76,.24,3.46-1.58,9.46-1.58,9.46,1.49,0,1.9-1.73,3.72-1.82,2.22-.11,1.47,1.82,4.37,1.82,4.82,0,7.36-.34,7.36-.34,0,0-1.08-5.79-.83-9.37Z"/>
        <path class="cls-5" d="M18.73,4.12c-1.07-.15-2.11-.22-3.15-.22-1.04,0-2.08,.07-3.15,.22-.07,.22,.02,1.17,.2,1.4,1.02-.14,1.98-.21,2.95-.21,.97,0,1.93,.06,2.95,.21,.18-.23,.27-1.18,.2-1.4Z"/>
      </g>
    </g>
    <g>
      <path class="cls-4" d="M50.34,39.35c.35-.11,2.18,.65,4.08,2.06,.23,.52,.43,1.1,.61,1.81-.06-.65-.12-1.11-.21-1.51,.27,.21,.53,.43,.79,.67,.14,.54,.21,1.15,.18,1.9,.16-.6,.26-1.05,.31-1.44,.47,.46,.91,.96,1.3,1.49,.06,.53,.06,1.11-.01,1.77,.16-.5,.28-.91,.36-1.27,.91,1.41,1.47,3.04,1.25,4.83,0,0-1.75-.07-3.07-1.37-.44-.43-.84-.88-1.21-1.33,.8,.24,1.66,.56,2.61,1.01-1.42-.96-2.27-1.45-3.23-1.81-.44-.59-.83-1.17-1.18-1.68,.49,.09,1,.19,1.56,.32-.69-.23-1.23-.4-1.71-.53-.25-.36-.49-.7-.71-.98-1.13-1.41-2.95-3.55-1.71-3.94Z"/>
      <path class="cls-5" d="M60.97,57.14s-.46-4.3-2.16-7.84c-2.18-4.56-6.85-8.41-7.07-8.47s4.41,3.56,6.7,8.33c2,4.15,2.15,7.38,2.15,7.38l.38,.61Z"/>
    </g>
    <text class="cls-2" transform="translate(61.05 56.42)"><tspan x="0" y="0">L</tspan></text>
    <rect class="cls-4" x=".2" y="60.14" width="86.38" height="1.32"/>
    <text class="cls-1" transform="translate(1.81 67.95)"><tspan x="0" y="0">And</tspan><tspan class="cls-9" x="11.38" y="0">r</tspan><tspan x="14.08" y="0">ade </tspan><tspan class="cls-11" x="25.3" y="0">&amp;</tspan><tspan x="29.42" y="0" xml:space="preserve"> Lace</tspan><tspan class="cls-7" x="43.27" y="0">r</tspan><tspan x="45.97" y="0">da</tspan><tspan class="cls-6" x="52.85" y="0"> </tspan><tspan class="cls-10" x="54" y="0">A</tspan><tspan x="57.82" y="0">d</tspan><tspan class="cls-8" x="61.48" y="0">v</tspan><tspan x="64.28" y="0">ogados</tspan></text>
    <text class="cls-3" transform="translate(28.56 56.57)"><tspan x="0" y="0">A</tspan></text>
  </g>
</svg>